<?xml version="1.0" encoding="UTF-8"?>
<svg version="1.1" xmlns="http://www.w3.org/2000/svg" width="1024" height="1024">
<path d="M0 0 C337.92 0 675.84 0 1024 0 C1024 337.92 1024 675.84 1024 1024 C686.08 1024 348.16 1024 0 1024 C0 686.08 0 348.16 0 0 Z " fill="#181E25" transform="translate(0,0)"/>
<path d="M0 0 C1.05316406 0.63164062 2.10632813 1.26328125 3.19140625 1.9140625 C3.78139404 2.2642041 4.37138184 2.6143457 4.97924805 2.97509766 C10.48870657 6.2829235 15.85714331 9.81633739 21.23535156 13.33178711 C28.92115235 18.33959355 36.77670129 23.01186845 44.75390625 27.5390625 C45.5639209 27.99893555 46.37393555 28.45880859 47.20849609 28.93261719 C80.19007331 47.53631761 114.30934489 62.2581693 150.75390625 72.5390625 C151.72199219 72.81443848 152.69007813 73.08981445 153.6875 73.37353516 C178.31315959 80.30263442 203.38570797 84.42969934 228.75390625 87.5390625 C229.58180664 87.6436377 230.40970703 87.74821289 231.26269531 87.85595703 C239.67173549 88.81843753 248.14992774 88.83436103 256.60595703 88.94042969 C258.65054231 88.96814316 260.69409851 89.01394258 262.73828125 89.0625 C263.94194336 89.08231934 265.14560547 89.10213867 266.38574219 89.12255859 C271.96255152 89.81218143 276.24416852 92.15189034 279.75390625 96.5390625 C281.94811786 101.66728998 282.01342832 106.22153075 281.94580078 111.69042969 C281.94299606 112.59207855 281.94019135 113.49372742 281.93730164 114.42269897 C281.93082125 116.37388537 281.92025446 118.32506159 281.90604019 120.27620697 C281.88649593 123.37122385 281.88438212 126.46577997 281.88790894 129.56085205 C281.89757792 138.3584915 281.89807242 147.15567927 281.83300781 155.953125 C281.79442344 161.34206497 281.79496166 166.72981151 281.82058334 172.11881256 C281.82298883 174.16482222 281.81101466 176.21090403 281.7840004 178.25673676 C281.26518972 191.26665132 281.26518972 191.26665132 286.67138672 202.66625977 C288.00764257 203.98262469 289.36537071 205.27796561 290.75390625 206.5390625 C293.63285155 210.7525189 296.19884473 215.12259874 298.75390625 219.5390625 C299.41390625 220.66957031 300.07390625 221.80007813 300.75390625 222.96484375 C309.64236945 238.63403992 315.7528558 256.00345088 319.75390625 273.5390625 C319.91761719 274.23563965 320.08132813 274.9322168 320.25 275.64990234 C325.4755333 299.08382804 325.41283046 328.20496929 319.75390625 351.5390625 C319.43123779 352.8998291 319.43123779 352.8998291 319.10205078 354.28808594 C310.43279889 389.61249183 292.57254567 419.26975584 266.75390625 444.5390625 C269.78943205 451.25310725 275.52175734 456.46546356 280.75390625 461.5390625 C281.59695313 461.05953125 281.59695313 461.05953125 282.45703125 460.5703125 C286.51180257 458.74980293 290.41078095 458.82178878 294.75390625 459.5390625 C302.1595638 462.94956269 307.5300871 470.53338884 312.75390625 476.5390625 C313.68203125 477.59673828 313.68203125 477.59673828 314.62890625 478.67578125 C315.75043627 479.95567547 316.86895107 481.23821836 317.984375 482.5234375 C320.00505581 484.82514014 322.06703243 487.08670629 324.12890625 489.3515625 C327.33043058 492.89066252 330.38536688 496.51009356 333.37890625 500.2265625 C336.43690229 504.00658538 339.59149411 507.49654433 343.08203125 510.875 C345.47881459 513.26058341 347.66311598 515.81162176 349.87109375 518.37109375 C351.96965945 520.78749201 354.10830325 523.16435274 356.25390625 525.5390625 C358.92438969 528.49776001 361.57688683 531.46832722 364.19140625 534.4765625 C367.0021315 537.70465762 369.86970525 540.87644693 372.75390625 544.0390625 C376.20483825 547.82311614 379.61504717 551.63411409 382.96484375 555.5078125 C384.30282916 557.02692258 385.66659456 558.52339528 387.04296875 560.0078125 C394.21526328 567.7641701 398.16931953 572.58791117 398.28515625 583.4765625 C397.06506229 590.51004535 392.57785081 595.1871908 387.62890625 599.9765625 C387.05849609 600.53641846 386.48808594 601.09627441 385.90039062 601.6730957 C370.34191195 616.75134759 370.34191195 616.75134759 361.44140625 616.9140625 C353.72955801 616.6223314 349.36830915 613.39705045 344.27416992 608.01391602 C341.71959749 605.23001131 339.2283784 602.39415313 336.75390625 599.5390625 C336.10292969 598.79914062 335.45195313 598.05921875 334.78125 597.296875 C333.69220959 596.05593533 332.60745765 594.81121704 331.52734375 593.5625 C329.30252533 591.02405079 327.02887306 588.53264474 324.75390625 586.0390625 C321.90866397 582.91999239 319.08191045 579.79150859 316.31640625 576.6015625 C313.35507115 573.1921767 310.31238139 569.8611194 307.25390625 566.5390625 C303.60727292 562.57773571 300.01061624 558.58115031 296.48046875 554.515625 C291.1308367 548.39138559 285.63270129 542.39947488 280.12890625 536.4140625 C276.55123997 532.52289885 273.02424066 528.59577728 269.56640625 524.59765625 C267.31489232 522.04044108 265.00067386 519.54420549 262.69140625 517.0390625 C250.62822175 503.79898195 250.62822175 503.79898195 250.56640625 495.6640625 C250.54513672 494.39949219 250.54513672 494.39949219 250.5234375 493.109375 C250.75390625 490.5390625 250.75390625 490.5390625 252.75390625 485.5390625 C248.46390625 480.9190625 244.17390625 476.2990625 239.75390625 471.5390625 C238.49578125 473.5190625 237.23765625 475.4990625 235.94140625 477.5390625 C228.14193149 489.70421729 219.98185245 501.5551292 211.03515625 512.90625 C209.69088638 514.61937441 208.36211817 516.3437541 207.03515625 518.0703125 C202.08284157 524.48600915 197.00532199 530.65188747 191.43359375 536.55078125 C189.10681647 539.06375588 187.01525986 541.73288401 184.890625 544.41796875 C179.27333915 551.32230738 173.01546853 557.54292606 166.69702148 563.80175781 C164.68605986 565.79436008 162.6833193 567.79495183 160.68164062 569.796875 C154.5397123 575.92170975 148.37643386 581.93044702 141.75390625 587.5390625 C139.97820404 589.15874067 138.20682318 590.78317968 136.44140625 592.4140625 C131.95242568 596.50786459 127.34147149 600.39375917 122.61328125 604.20703125 C120.11606608 606.24369444 117.66200066 608.32191803 115.21948242 610.42358398 C106.9968815 617.48252596 98.43333013 624.05409614 89.75390625 630.5390625 C89.11549805 631.01972168 88.47708984 631.50038086 87.81933594 631.99560547 C12.63581838 688.39297739 12.63581838 688.39297739 -10.734375 688.0546875 C-24.17264761 686.08154847 -37.25591142 675.42348761 -48.46240234 668.30517578 C-51.29670192 666.50695414 -54.13973836 664.72322222 -56.984375 662.94140625 C-66.67357348 656.85197397 -76.21235051 650.64831562 -85.43115234 643.86669922 C-87.49133163 642.35967003 -89.56498521 640.8723788 -91.640625 639.38671875 C-111.9455445 624.83987887 -131.52767652 609.38590407 -150.00390625 592.5625 C-151.95069868 590.80563854 -153.93145257 589.10685998 -155.93359375 587.4140625 C-162.13410944 582.0267292 -167.81008383 576.05084533 -173.58496094 570.21655273 C-176.96018332 566.80809404 -180.36036752 563.4252266 -183.76953125 560.05078125 C-190.15173015 553.72289893 -196.46670071 547.42890661 -202.24609375 540.5390625 C-203.15345258 539.49349212 -204.06247201 538.44936175 -204.97265625 537.40625 C-211.70316525 529.6713653 -218.13841228 521.77651187 -224.24609375 513.5390625 C-224.74753906 512.86359375 -225.24898438 512.188125 -225.765625 511.4921875 C-238.0803684 494.83282659 -249.1133087 477.60553711 -259.24609375 459.5390625 C-259.64038574 458.84377441 -260.03467773 458.14848633 -260.44091797 457.43212891 C-267.48832258 444.93913915 -273.07293751 431.90634027 -278.24609375 418.5390625 C-278.67599609 417.43014648 -279.10589844 416.32123047 -279.54882812 415.17871094 C-284.95555943 400.99109239 -289.17927316 386.8244749 -292.24609375 371.9765625 C-292.38816254 371.2979718 -292.53023132 370.6193811 -292.67660522 369.92022705 C-296.64603045 350.66975835 -297.54700392 331.52244561 -297.53662109 311.91503906 C-297.54262172 309.61967758 -297.54943072 307.3243181 -297.55697632 305.02896118 C-297.57446849 298.8603726 -297.57932398 292.69183964 -297.58060789 286.52322865 C-297.58203745 282.66295875 -297.58632171 278.80270266 -297.59160233 274.94243622 C-297.60908671 262.15213147 -297.6184496 249.3618711 -297.61694138 236.57155612 C-297.61686147 235.88600901 -297.61678155 235.20046189 -297.61669922 234.49414062 C-297.61661746 233.80774528 -297.6165357 233.12134994 -297.61645146 232.41415474 C-297.61563589 221.25308194 -297.63485931 210.09214318 -297.66297595 198.93110922 C-297.69171496 187.43141645 -297.70515001 175.93180655 -297.7037884 164.43207526 C-297.70327897 157.9911366 -297.70895476 151.55035067 -297.7301445 145.10944366 C-297.7494949 139.06486421 -297.74967311 133.02058407 -297.73511124 126.97599411 C-297.73301945 124.76045418 -297.73774595 122.54489561 -297.74983215 120.32938766 C-297.76527493 117.30259339 -297.75598307 114.27683314 -297.74057007 111.25006104 C-297.75085719 110.37652426 -297.76114432 109.50298748 -297.77174318 108.6029799 C-297.70746157 102.88105466 -296.64954497 98.24348 -293.24609375 93.5390625 C-287.07267311 88.52945155 -279.79097263 88.95769947 -272.18359375 88.9140625 C-269.65615403 88.85836315 -267.12880468 88.79841313 -264.6015625 88.734375 C-263.35165527 88.70504883 -262.10174805 88.67572266 -260.81396484 88.64550781 C-191.37866138 86.57394682 -120.63330179 63.59199993 -61.24609375 28.5390625 C-59.96545455 27.79842203 -58.6842696 27.05872375 -57.40234375 26.3203125 C-47.87458609 20.77381061 -38.70140919 14.65945442 -29.51831055 8.56542969 C-26.44198151 6.53328241 -23.34922094 4.52998387 -20.24609375 2.5390625 C-19.41819336 1.99056641 -18.59029297 1.44207031 -17.73730469 0.87695312 C-11.20479329 -3.17963853 -7.16407352 -3.22426413 0 0 Z " fill="#263E51" transform="translate(480.24609375,170.4609375)"/>
<path d="M0 0 C0.66435059 0.37882324 1.32870117 0.75764648 2.01318359 1.14794922 C11.85034491 6.83676959 20.6825923 13.26270792 29 21 C29.60730957 21.56348145 30.21461914 22.12696289 30.84033203 22.70751953 C44.76841812 35.78264807 55.22500945 50.06863244 64 67 C64.47928955 67.91168945 64.47928955 67.91168945 64.96826172 68.84179688 C84.12270455 105.72886816 86.22001588 151.11245377 73.96606445 190.4152832 C64.24108029 220.01990362 46.86886335 246.90426564 22 266 C21.0409375 266.75152344 20.081875 267.50304687 19.09375 268.27734375 C-9.51262081 290.29672128 -42.43784685 301.22101169 -78.375 301.25 C-79.12844696 301.25067474 -79.88189392 301.25134949 -80.65817261 301.25204468 C-125.4329513 301.18849223 -165.25200529 283.58064768 -196.96875 252.1015625 C-217.81254886 230.23953209 -231.59349538 202.42134114 -238 173 C-238.17660156 172.20505127 -238.35320312 171.41010254 -238.53515625 170.59106445 C-240.45678015 160.80021911 -240.39717028 151.00027232 -240.375 141.0625 C-240.37445618 140.14959198 -240.37391235 139.23668396 -240.37335205 138.29611206 C-240.3364015 124.8285222 -239.80842541 112.00330434 -236 99 C-235.69449219 97.88987549 -235.69449219 97.88987549 -235.3828125 96.75732422 C-230.54736038 79.47879121 -222.77042676 62.38062568 -212 48 C-211.61827637 47.4745459 -211.23655273 46.9490918 -210.84326172 46.40771484 C-186.76619934 13.36548182 -151.9826433 -8.63073911 -112.1875 -17.25 C-111.43549316 -17.41338867 -110.68348633 -17.57677734 -109.90869141 -17.74511719 C-72.93800274 -25.30199362 -32.67003573 -18.75204176 0 0 Z " fill="#263D51" transform="translate(699,343)"/>
<path d="M0 0 C1.05316406 0.63164062 2.10632813 1.26328125 3.19140625 1.9140625 C3.78139404 2.2642041 4.37138184 2.6143457 4.97924805 2.97509766 C10.48870657 6.2829235 15.85714331 9.81633739 21.23535156 13.33178711 C28.92115235 18.33959355 36.77670129 23.01186845 44.75390625 27.5390625 C45.5639209 27.99893555 46.37393555 28.45880859 47.20849609 28.93261719 C80.19007331 47.53631761 114.30934489 62.2581693 150.75390625 72.5390625 C151.72199219 72.81443848 152.69007813 73.08981445 153.6875 73.37353516 C178.31315959 80.30263442 203.38570797 84.42969934 228.75390625 87.5390625 C229.58180664 87.6436377 230.40970703 87.74821289 231.26269531 87.85595703 C239.67173549 88.81843753 248.14992774 88.83436103 256.60595703 88.94042969 C258.65054231 88.96814316 260.69409851 89.01394258 262.73828125 89.0625 C263.94194336 89.08231934 265.14560547 89.10213867 266.38574219 89.12255859 C272.04465277 89.822334 276.09624522 92.20405684 279.75390625 96.5390625 C281.08374235 100.52857079 280.88465298 104.34995306 280.86743164 108.50854492 C280.86757767 109.42581863 280.86772369 110.34309235 280.86787415 111.28816223 C280.86717682 114.32364253 280.85939281 117.35906166 280.8515625 120.39453125 C280.84969768 122.49774644 280.84827408 124.60096207 280.84727478 126.70417786 C280.84345464 132.24275916 280.83362862 137.7813143 280.8225708 143.31988525 C280.81234589 148.97041469 280.80777484 154.62094835 280.80273438 160.27148438 C280.79200593 171.36068859 280.77493551 182.44987337 280.75390625 193.5390625 C277.81668489 190.61135919 274.91511376 187.67449606 272.1171875 184.61328125 C271.1262207 183.54110352 271.1262207 183.54110352 270.11523438 182.44726562 C268.76416303 180.98285369 267.41768993 179.51418412 266.07617188 178.04101562 C265.07553711 176.96303711 265.07553711 176.96303711 264.0546875 175.86328125 C263.37535156 175.12577637 262.69601562 174.38827148 261.99609375 173.62841797 C259.81294818 171.43645244 259.81294818 171.43645244 257.02734375 169.96923828 C253.80184769 168.06081978 251.91720605 166.62663034 249.75390625 163.5390625 C248.08070821 156.56179755 248.81760757 149.14137123 249.12890625 142.0390625 C249.17911239 140.052195 249.22473183 138.06520599 249.265625 136.078125 C249.37537783 131.22875428 249.54764505 126.38524864 249.75390625 121.5390625 C248.48675781 121.54921387 247.21960938 121.55936523 245.9140625 121.56982422 C244.21484489 121.57803867 242.51562604 121.58600039 240.81640625 121.59375 C239.98560547 121.60108154 239.15480469 121.60841309 238.29882812 121.6159668 C227.25064309 121.65358221 216.51162617 120.07662481 205.66943359 118.06591797 C202.77133833 117.54221259 199.8690199 117.06633336 196.9609375 116.6015625 C149.38896379 108.81357911 103.28478051 94.26640247 59.75390625 73.5390625 C58.88636719 73.12720703 58.01882813 72.71535156 57.125 72.29101562 C37.96572806 63.12488912 19.75900113 52.51318737 2.18505859 40.58837891 C1.02611084 39.81373291 1.02611084 39.81373291 -0.15625 39.0234375 C-1.16377319 38.33846191 -1.16377319 38.33846191 -2.19165039 37.63964844 C-4.61087992 36.34364288 -6.50912841 35.77846989 -9.24609375 35.5390625 C-11.31960607 36.25222049 -11.31960607 36.25222049 -13.21484375 37.56640625 C-13.94396973 38.0248291 -14.6730957 38.48325195 -15.42431641 38.95556641 C-16.57359619 39.70845947 -16.57359619 39.70845947 -17.74609375 40.4765625 C-18.54708496 40.98364746 -19.34807617 41.49073242 -20.17333984 42.01318359 C-21.79080122 43.03765133 -23.40463398 44.0678722 -25.01464844 45.10400391 C-35.19823921 51.65314467 -45.62278468 57.73779245 -56.24609375 63.5390625 C-57.05208008 63.98233887 -57.85806641 64.42561523 -58.68847656 64.88232422 C-82.82760448 78.08211761 -107.9870348 89.05309059 -134.16357422 97.52758789 C-136.32598711 98.23714568 -138.480767 98.97019137 -140.62939453 99.72045898 C-150.9407648 103.29009968 -161.37945615 105.97524328 -171.99609375 108.4765625 C-172.90295929 108.69183594 -173.80982483 108.90710938 -174.74417114 109.12890625 C-201.57307613 115.4697988 -229.58781544 121.77385126 -257.26953125 121.578125 C-258.42908325 121.57389526 -258.42908325 121.57389526 -259.61206055 121.56958008 C-261.49008512 121.5623178 -263.36809379 121.55111298 -265.24609375 121.5390625 C-265.20878049 149.38338865 -265.14870598 177.22758732 -265.06219101 205.07180595 C-265.02253221 218.00295063 -264.99007328 230.9340356 -264.97509766 243.86523438 C-264.96201251 255.14776188 -264.93487474 266.4301573 -264.89148068 277.71261036 C-264.86901904 283.67596747 -264.85317377 289.63916261 -264.8542099 295.60256577 C-265.07919458 330.28644938 -265.07919458 330.28644938 -260.24609375 364.5390625 C-260.08629784 365.29098248 -259.92650192 366.04290245 -259.76186371 366.81760788 C-258.7710805 371.44973553 -257.56734205 375.99252839 -256.24609375 380.5390625 C-255.98344727 381.47121582 -255.72080078 382.40336914 -255.45019531 383.36376953 C-250.91540736 399.35578695 -245.31292839 414.49742984 -238.24609375 429.5390625 C-237.9114209 430.26206543 -237.57674805 430.98506836 -237.23193359 431.72998047 C-223.86988398 460.41237076 -205.39791075 486.63261892 -184.80078125 510.546875 C-182.34924013 513.41825191 -179.9804997 516.34184607 -177.62109375 519.2890625 C-174.10036026 523.6208221 -170.33936576 527.55249989 -166.34375 531.4453125 C-164.47678113 533.3088047 -162.76028773 535.21353103 -161.05859375 537.2265625 C-153.84536912 545.61952013 -145.80222028 553.5636862 -137.35546875 560.7109375 C-135.0595116 562.70076703 -132.84266831 564.76182164 -130.62304688 566.8359375 C-125.22550197 571.87780604 -119.73625018 576.7140198 -113.97265625 581.33984375 C-111.12903726 583.63347912 -108.34531411 585.98923486 -105.55859375 588.3515625 C-98.96301028 593.85640348 -92.1130385 598.98961829 -85.20166016 604.08935547 C-83.44004671 605.39528064 -81.69070431 606.71549512 -79.9453125 608.04296875 C-62.51471779 621.19911571 -43.99643274 633.09286727 -25.48965454 644.67276001 C-23.84960716 645.70085252 -22.21608972 646.73933866 -20.58276367 647.77807617 C-13.43216103 652.44566536 -13.43216103 652.44566536 -5.24609375 653.5390625 C3.16199014 650.2932752 10.67261895 645.21506293 18.12890625 640.2265625 C20.15335985 638.88758834 22.17809811 637.54904447 24.203125 636.2109375 C25.16395996 635.57349609 26.12479492 634.93605469 27.11474609 634.27929688 C30.36491793 632.13616784 33.64908524 630.05427873 36.94140625 627.9765625 C56.07627964 615.68874621 74.25846591 602.05140932 91.75390625 587.5390625 C93.60801528 586.03899126 95.46218275 584.53899225 97.31640625 583.0390625 C101.80738357 579.36695284 106.14073972 575.55360188 110.4296875 571.6484375 C112.4743296 569.79279593 114.54174774 567.97149874 116.62890625 566.1640625 C126.06440238 557.92428012 135.11805478 549.34029674 143.95581055 540.4675293 C145.57942854 538.83849678 147.20840228 537.21495522 148.83789062 535.59179688 C154.35326672 530.0803982 159.72242824 524.50094728 164.75390625 518.5390625 C165.80911535 517.31573259 166.86509768 516.0930692 167.921875 514.87109375 C168.92880954 513.69828067 169.93532414 512.52510691 170.94140625 511.3515625 C171.44865234 510.76181641 171.95589844 510.17207031 172.47851562 509.56445312 C172.97544922 508.98501953 173.47238281 508.40558594 173.984375 507.80859375 C174.46447021 507.25413574 174.94456543 506.69967773 175.43920898 506.12841797 C176.92234727 504.38514037 176.92234727 504.38514037 178.67578125 501.72265625 C181.52392677 498.72996199 183.77125559 498.51791848 187.81640625 497.7890625 C196.08105523 496.12998798 203.96333646 493.61965481 211.94140625 490.9140625 C213.11131104 490.51735352 214.28121582 490.12064453 215.48657227 489.71191406 C217.61337973 488.98712148 219.73931891 488.25977127 221.86401367 487.52880859 C224.82196885 486.51575205 227.7865049 485.52406686 230.75390625 484.5390625 C217.31130634 506.34990341 201.21323481 526.14858204 183.984375 545.0625 C182.76522093 546.41616669 181.55251686 547.77620696 180.37329102 549.16479492 C175.20637209 555.21580836 169.61713415 560.82776584 163.98413086 566.43920898 C162.31964348 568.0983357 160.66057178 569.76274301 159.00195312 571.42773438 C153.42361828 577.00956073 147.75935597 582.41498561 141.75390625 587.5390625 C139.97820404 589.15874067 138.20682318 590.78317968 136.44140625 592.4140625 C131.95242568 596.50786459 127.34147149 600.39375917 122.61328125 604.20703125 C120.11606608 606.24369444 117.66200066 608.32191803 115.21948242 610.42358398 C106.9968815 617.48252596 98.43333013 624.05409614 89.75390625 630.5390625 C89.11549805 631.01972168 88.47708984 631.50038086 87.81933594 631.99560547 C12.63581838 688.39297739 12.63581838 688.39297739 -10.734375 688.0546875 C-24.17264761 686.08154847 -37.25591142 675.42348761 -48.46240234 668.30517578 C-51.29670192 666.50695414 -54.13973836 664.72322222 -56.984375 662.94140625 C-66.67357348 656.85197397 -76.21235051 650.64831562 -85.43115234 643.86669922 C-87.49133163 642.35967003 -89.56498521 640.8723788 -91.640625 639.38671875 C-111.9455445 624.83987887 -131.52767652 609.38590407 -150.00390625 592.5625 C-151.95069868 590.80563854 -153.93145257 589.10685998 -155.93359375 587.4140625 C-162.13410944 582.0267292 -167.81008383 576.05084533 -173.58496094 570.21655273 C-176.96018332 566.80809404 -180.36036752 563.4252266 -183.76953125 560.05078125 C-190.15173015 553.72289893 -196.46670071 547.42890661 -202.24609375 540.5390625 C-203.15345258 539.49349212 -204.06247201 538.44936175 -204.97265625 537.40625 C-211.70316525 529.6713653 -218.13841228 521.77651187 -224.24609375 513.5390625 C-224.74753906 512.86359375 -225.24898438 512.188125 -225.765625 511.4921875 C-238.0803684 494.83282659 -249.1133087 477.60553711 -259.24609375 459.5390625 C-259.64038574 458.84377441 -260.03467773 458.14848633 -260.44091797 457.43212891 C-267.48832258 444.93913915 -273.07293751 431.90634027 -278.24609375 418.5390625 C-278.67599609 417.43014648 -279.10589844 416.32123047 -279.54882812 415.17871094 C-284.95555943 400.99109239 -289.17927316 386.8244749 -292.24609375 371.9765625 C-292.38816254 371.2979718 -292.53023132 370.6193811 -292.67660522 369.92022705 C-296.64603045 350.66975835 -297.54700392 331.52244561 -297.53662109 311.91503906 C-297.54262172 309.61967758 -297.54943072 307.3243181 -297.55697632 305.02896118 C-297.57446849 298.8603726 -297.57932398 292.69183964 -297.58060789 286.52322865 C-297.58203745 282.66295875 -297.58632171 278.80270266 -297.59160233 274.94243622 C-297.60908671 262.15213147 -297.6184496 249.3618711 -297.61694138 236.57155612 C-297.61686147 235.88600901 -297.61678155 235.20046189 -297.61669922 234.49414062 C-297.61661746 233.80774528 -297.6165357 233.12134994 -297.61645146 232.41415474 C-297.61563589 221.25308194 -297.63485931 210.09214318 -297.66297595 198.93110922 C-297.69171496 187.43141645 -297.70515001 175.93180655 -297.7037884 164.43207526 C-297.70327897 157.9911366 -297.70895476 151.55035067 -297.7301445 145.10944366 C-297.7494949 139.06486421 -297.74967311 133.02058407 -297.73511124 126.97599411 C-297.73301945 124.76045418 -297.73774595 122.54489561 -297.74983215 120.32938766 C-297.76527493 117.30259339 -297.75598307 114.27683314 -297.74057007 111.25006104 C-297.75085719 110.37652426 -297.76114432 109.50298748 -297.77174318 108.6029799 C-297.70746157 102.88105466 -296.64954497 98.24348 -293.24609375 93.5390625 C-287.07267311 88.52945155 -279.79097263 88.95769947 -272.18359375 88.9140625 C-269.65615403 88.85836315 -267.12880468 88.79841313 -264.6015625 88.734375 C-263.35165527 88.70504883 -262.10174805 88.67572266 -260.81396484 88.64550781 C-191.37866138 86.57394682 -120.63330179 63.59199993 -61.24609375 28.5390625 C-59.96545455 27.79842203 -58.6842696 27.05872375 -57.40234375 26.3203125 C-47.87458609 20.77381061 -38.70140919 14.65945442 -29.51831055 8.56542969 C-26.44198151 6.53328241 -23.34922094 4.52998387 -20.24609375 2.5390625 C-19.41819336 1.99056641 -18.59029297 1.44207031 -17.73730469 0.87695312 C-11.20479329 -3.17963853 -7.16407352 -3.22426413 0 0 Z " fill="#5F91B3" transform="translate(480.24609375,170.4609375)"/>
<path d="M0 0 C0.66435059 0.37882324 1.32870117 0.75764648 2.01318359 1.14794922 C11.85034491 6.83676959 20.6825923 13.26270792 29 21 C29.60730957 21.56348145 30.21461914 22.12696289 30.84033203 22.70751953 C44.76841812 35.78264807 55.22500945 50.06863244 64 67 C64.47928955 67.91168945 64.47928955 67.91168945 64.96826172 68.84179688 C84.12270455 105.72886816 86.22001588 151.11245377 73.96606445 190.4152832 C64.24108029 220.01990362 46.86886335 246.90426564 22 266 C21.0409375 266.75152344 20.081875 267.50304687 19.09375 268.27734375 C-9.51262081 290.29672128 -42.43784685 301.22101169 -78.375 301.25 C-79.12844696 301.25067474 -79.88189392 301.25134949 -80.65817261 301.25204468 C-125.4329513 301.18849223 -165.25200529 283.58064768 -196.96875 252.1015625 C-217.81254886 230.23953209 -231.59349538 202.42134114 -238 173 C-238.17660156 172.20505127 -238.35320312 171.41010254 -238.53515625 170.59106445 C-240.45678015 160.80021911 -240.39717028 151.00027232 -240.375 141.0625 C-240.37445618 140.14959198 -240.37391235 139.23668396 -240.37335205 138.29611206 C-240.3364015 124.8285222 -239.80842541 112.00330434 -236 99 C-235.69449219 97.88987549 -235.69449219 97.88987549 -235.3828125 96.75732422 C-230.54736038 79.47879121 -222.77042676 62.38062568 -212 48 C-211.61827637 47.4745459 -211.23655273 46.9490918 -210.84326172 46.40771484 C-186.76619934 13.36548182 -151.9826433 -8.63073911 -112.1875 -17.25 C-111.43549316 -17.41338867 -110.68348633 -17.57677734 -109.90869141 -17.74511719 C-72.93800274 -25.30199362 -32.67003573 -18.75204176 0 0 Z M-178.625 55.75 C-189.53981907 68.24667691 -197.54618498 82.84477526 -203.25 98.375 C-203.48428711 98.99745605 -203.71857422 99.61991211 -203.95996094 100.26123047 C-208.22015636 112.46421491 -209.50516342 125.01654086 -209.39111328 137.85449219 C-209.37500004 139.99999488 -209.39109647 142.14361523 -209.41015625 144.2890625 C-209.4306865 157.20599537 -207.57098208 169.75779496 -203.3125 182 C-203.05831299 182.74145264 -202.80412598 183.48290527 -202.54223633 184.24682617 C-196.34906597 201.68075829 -186.81450703 216.65596789 -174 230 C-173.16855469 230.89460937 -172.33710937 231.78921875 -171.48046875 232.7109375 C-151.47690915 253.62241855 -121.50724018 268.75628831 -92.36987305 270.17700195 C-67.88505329 270.73454465 -67.88505329 270.73454465 -44 266 C-42.22109375 265.52626953 -42.22109375 265.52626953 -40.40625 265.04296875 C-21.51202174 259.55953511 -4.43783571 249.20452013 10 236 C11.28197266 234.86498047 11.28197266 234.86498047 12.58984375 233.70703125 C30.01845101 217.38111268 40.97740663 194.79328231 47 172 C47.1841748 171.3395166 47.36834961 170.6790332 47.55810547 169.99853516 C55.99121609 138.61249534 48.89711817 102.43983191 33.1328125 74.53515625 C27.59408511 65.12750249 20.46879623 56.91274565 13 49 C12.30390625 48.23945313 11.6078125 47.47890625 10.890625 46.6953125 C-2.33550773 32.74512141 -20.75288119 22.61130077 -39 17 C-40.15242187 16.63132812 -41.30484375 16.26265625 -42.4921875 15.8828125 C-92.60148136 0.59333976 -143.57928611 18.67887707 -178.625 55.75 Z " fill="#A2C5DF" transform="translate(699,343)"/>
<path d="M0 0 C1.01416992 0.00644531 2.02833984 0.01289063 3.07324219 0.01953125 C17.14762753 0.3618203 27.44776733 5.83763112 37.77734375 15.37109375 C49.07541173 27.26249572 51.09191341 40.86964913 50.875 56.5625 C50.86597656 57.80966797 50.85695313 59.05683594 50.84765625 60.34179688 C50.82426209 63.39473504 50.79148174 66.44726306 50.75 69.5 C51.87365967 69.47933472 51.87365967 69.47933472 53.02001953 69.45825195 C54.00599121 69.44753662 54.99196289 69.43682129 56.0078125 69.42578125 C57.47178467 69.40511597 57.47178467 69.40511597 58.96533203 69.3840332 C64.32864831 69.60738716 67.59421183 71.46984098 71.625 75.0625 C75.16755522 79.12601922 74.90923269 82.31099556 74.92700195 87.49462891 C74.93357315 88.32087769 74.94014435 89.14712646 74.94691467 89.99841309 C74.96667228 92.74113045 74.97831805 95.48379289 74.98828125 98.2265625 C74.99235678 99.16354351 74.9964323 100.10052452 75.00063133 101.0658989 C75.02150632 106.02879365 75.03579971 110.99166066 75.04516602 115.95458984 C75.05621072 121.07244048 75.09058409 126.18985396 75.13033772 131.30755043 C75.15653651 135.24877712 75.16486094 139.18990041 75.16844749 143.13120651 C75.17330798 145.01698115 75.18490659 146.90275133 75.20348549 148.7884407 C75.22793798 151.43564219 75.22690051 154.08172312 75.2199707 156.72900391 C75.23918579 157.88739273 75.23918579 157.88739273 75.25878906 159.06918335 C75.19199165 166.10814863 72.92025184 171.28042426 68 176.3125 C60.62772803 181.27460613 54.27218224 181.9400644 45.61157227 181.88818359 C43.97827469 181.89606903 43.97827469 181.89606903 42.3119812 181.90411377 C38.72997486 181.917265 35.14841674 181.90859201 31.56640625 181.8984375 C29.06591202 181.90045977 26.56541836 181.90337249 24.06492615 181.90713501 C18.1613862 181.91211658 12.25800749 181.90165202 6.35449117 181.8856827 C1.65903238 181.87442479 -3.03623768 181.87840038 -7.73168945 181.89111328 C-14.22486382 181.90853901 -20.7178564 181.91121278 -27.21104622 181.9014473 C-29.67930202 181.89945163 -32.14756563 181.9018822 -34.6158123 181.90888596 C-38.07147405 181.91653967 -41.52655874 181.90484025 -44.98217773 181.88818359 C-45.99388535 181.89425629 -47.00559296 181.90032898 -48.04795837 181.90658569 C-55.39634857 181.84126114 -61.57498975 180.588074 -68 176.9375 C-76.57729551 167.64542986 -75.99060771 157.28753572 -75.9140625 145.39453125 C-75.91743627 143.54228905 -75.92229356 141.69004901 -75.92855835 139.83781433 C-75.9358977 135.97214501 -75.92531588 132.10705648 -75.90185547 128.24145508 C-75.87330908 123.29834165 -75.88982707 118.35658229 -75.91971779 113.41351795 C-75.93781934 109.59492354 -75.93202071 105.77664828 -75.91907883 101.95804405 C-75.91575582 100.13566614 -75.91979283 98.31325878 -75.93147659 96.4909153 C-75.94423974 93.94214086 -75.92473724 91.39553732 -75.89697266 88.84692383 C-75.90709381 88.10233917 -75.91721497 87.35775452 -75.92764282 86.59060669 C-75.81601194 81.03278424 -74.0284822 77.5634877 -70.25 73.5 C-65.79412093 70.23960068 -61.94934694 69.35736255 -56.5 69.4375 C-55.70078125 69.44652344 -54.9015625 69.45554687 -54.078125 69.46484375 C-53.47484375 69.47644531 -52.8715625 69.48804688 -52.25 69.5 C-52.27094727 68.78046143 -52.29189453 68.06092285 -52.31347656 67.31958008 C-52.83229964 46.80800808 -52.21330611 31.13188679 -37.625 15.3125 C-26.78520878 5.08310479 -14.74244839 -0.09792393 0 0 Z " fill="#5E90B2" transform="translate(616.25,387.5)"/>
<path d="M0 0 C4.0633603 3.17140316 7.39989639 6.49802453 10.73828125 10.4140625 C13.81330957 13.92989799 16.99807666 17.33803965 20.1875 20.75 C20.79400391 21.4001709 21.40050781 22.0503418 22.02539062 22.72021484 C24.96808553 25.86532164 27.92721574 28.98058916 31 32 C31.56203125 31.6803125 32.1240625 31.360625 32.703125 31.03125 C36.75789632 29.21074043 40.6568747 29.28272628 45 30 C52.40565755 33.41050019 57.77618085 40.99432634 63 47 C63.61875 47.70511719 64.2375 48.41023437 64.875 49.13671875 C65.99653002 50.41661297 67.11504482 51.69915586 68.23046875 52.984375 C70.25114956 55.28607764 72.31312618 57.54764379 74.375 59.8125 C77.57652433 63.35160002 80.63146063 66.97103106 83.625 70.6875 C86.68299604 74.46752288 89.83758786 77.95748183 93.328125 81.3359375 C95.72490834 83.72152091 97.90920973 86.27255926 100.1171875 88.83203125 C102.2157532 91.24842951 104.354397 93.62529024 106.5 96 C109.17048344 98.95869751 111.82298058 101.92926472 114.4375 104.9375 C117.24822525 108.16559512 120.115799 111.33738443 123 114.5 C126.450932 118.28405364 129.86114092 122.09505159 133.2109375 125.96875 C134.54892291 127.48786008 135.91268831 128.98433278 137.2890625 130.46875 C144.46135703 138.2251076 148.41541328 143.04884867 148.53125 153.9375 C147.31115604 160.97098285 142.82394456 165.6481283 137.875 170.4375 C137.30458984 170.99735596 136.73417969 171.55721191 136.14648438 172.1340332 C120.5880057 187.21228509 120.5880057 187.21228509 111.6875 187.375 C103.97565176 187.0832689 99.6144029 183.85798795 94.52026367 178.47485352 C91.96569124 175.69094881 89.47447215 172.85509063 87 170 C86.34902344 169.26007813 85.69804688 168.52015625 85.02734375 167.7578125 C83.93830334 166.51687283 82.8535514 165.27215454 81.7734375 164.0234375 C79.54861908 161.48498829 77.27496681 158.99358224 75 156.5 C72.15475772 153.38092989 69.3280042 150.25244609 66.5625 147.0625 C63.6011649 143.6531142 60.55847514 140.3220569 57.5 137 C53.85336667 133.03867321 50.25670999 129.04208781 46.7265625 124.9765625 C41.37693045 118.85232309 35.87879504 112.86041238 30.375 106.875 C26.79733372 102.98383635 23.27033441 99.05671478 19.8125 95.05859375 C17.56098607 92.50137858 15.24676761 90.00514299 12.9375 87.5 C0.8743155 74.25991945 0.8743155 74.25991945 0.8125 66.125 C0.79832031 65.28195312 0.78414062 64.43890625 0.76953125 63.5703125 C1.02410229 60.73119816 1.82809747 58.5846704 3 56 C2.41883423 55.38125 2.41883423 55.38125 1.82592773 54.75 C-11.60521186 40.43835906 -11.60521186 40.43835906 -16.40234375 34.84375 C-17.64524516 33.40939922 -18.91346874 31.9969755 -20.19140625 30.59375 C-20.93261719 29.7790625 -21.67382812 28.964375 -22.4375 28.125 C-23.11683594 27.38507812 -23.79617188 26.64515625 -24.49609375 25.8828125 C-26 24 -26 24 -26 22 C-26.66 21.67 -27.32 21.34 -28 21 C-27.11699219 20.45472656 -26.23398437 19.90945313 -25.32421875 19.34765625 C-16.26007647 13.67860406 -7.46890699 7.73652255 0 0 Z " fill="#426988" transform="translate(730,600)"/>
<path d="M0 0 C0.71451153 -0.0060911 1.42902307 -0.01218221 2.16518646 -0.01845789 C4.55967242 -0.03510854 6.9536278 -0.03030931 9.34815979 -0.0255127 C11.06475884 -0.03285183 12.78135296 -0.0414376 14.49794006 -0.05117798 C19.16115694 -0.07341862 23.82419726 -0.07632341 28.4874599 -0.07443047 C32.37922936 -0.07431089 36.27096124 -0.08286978 40.16272026 -0.09120798 C49.34321121 -0.11045104 58.52361123 -0.1133225 67.70411682 -0.10656738 C77.17798178 -0.09992476 86.65145758 -0.12279775 96.1252436 -0.15988111 C104.25699278 -0.1905575 112.38861662 -0.20194042 120.52042252 -0.1980443 C125.37815922 -0.19597475 130.2355931 -0.20148771 135.09327507 -0.22593689 C139.66117149 -0.24816766 144.22843424 -0.24635703 148.79633331 -0.22600937 C150.47291364 -0.22259285 152.14953632 -0.22771606 153.82605934 -0.24199295 C156.11508749 -0.26014102 158.40195568 -0.247473 160.69091797 -0.22705078 C161.97162391 -0.22776329 163.25232985 -0.2284758 164.57184505 -0.2292099 C168.78043656 0.55726741 170.24012304 2.12544038 172.90895081 5.39440918 C175.00961927 9.59574611 174.45030119 14.83159884 173.90895081 19.39440918 C172.55261671 22.19610316 171.33077616 23.31051294 168.90895081 25.39440918 C165.41418647 26.55933062 162.66552393 26.53217082 158.97612 26.54830933 C158.26654644 26.55269158 157.55697288 26.55707383 156.8258971 26.56158888 C154.44228341 26.57497024 152.05870668 26.58115417 149.67506409 26.58728027 C147.96846856 26.5951816 146.26187469 26.60345057 144.55528259 26.61206055 C138.94662571 26.6382713 133.33796139 26.65358456 127.72926331 26.66784668 C125.79928965 26.67320624 123.86931605 26.67858375 121.9393425 26.68397903 C113.91332458 26.70560397 105.88730867 26.72434215 97.861269 26.73560143 C86.35297378 26.75185158 74.84501558 26.78505959 63.33684742 26.84200227 C55.24760368 26.88066647 47.15845022 26.90022978 39.06911647 26.90552199 C34.23592314 26.90917951 29.40308935 26.9212437 24.56999588 26.95362473 C20.02431721 26.98364447 15.47921681 26.99003913 10.93346024 26.97824097 C9.26492663 26.97801974 7.59636665 26.9863656 5.92792511 27.00389481 C3.64983379 27.02652717 1.37385012 27.01832191 -0.9042511 27.00241089 C-2.81619672 27.00737611 -2.81619672 27.00737611 -4.7667675 27.01244164 C-8.96584062 26.23177269 -10.432083 24.65761402 -13.09104919 21.39440918 C-15.14679267 16.65038577 -14.43009492 11.41154636 -12.84104919 6.64440918 C-9.60951502 0.64298857 -6.66388974 0.01940731 0 0 Z " fill="#5F90B2" transform="translate(282.09104919433594,364.6055908203125)"/>
<path d="M0 0 C1.2828891 -0.00571014 2.5657782 -0.01142029 3.88754272 -0.01730347 C5.31745901 -0.01854889 6.7473754 -0.01967397 8.17729187 -0.02069092 C9.67684553 -0.02531809 11.176398 -0.03034261 12.6759491 -0.03573608 C16.7566143 -0.04887252 20.83726305 -0.05530755 24.9179461 -0.05974674 C27.46649094 -0.06267569 30.01503127 -0.06678017 32.56357384 -0.07125092 C40.53470728 -0.08492961 48.50583042 -0.09459424 56.47697479 -0.09845281 C65.68330192 -0.10293353 74.88948057 -0.12048049 84.09576255 -0.1494534 C91.2083518 -0.17106138 98.32089925 -0.18115663 105.43352097 -0.18249393 C109.6831283 -0.18354266 113.93259614 -0.18946491 118.18216896 -0.20731354 C122.18028437 -0.22377882 126.17815521 -0.22595732 130.17629242 -0.21717453 C131.64324027 -0.2164033 133.11020119 -0.22075821 134.57711601 -0.23063278 C136.58083044 -0.24332903 138.58464289 -0.23569222 140.58837891 -0.22705078 C141.70944692 -0.22851734 142.83051493 -0.2299839 143.9855547 -0.2314949 C148.18205365 0.28893691 150.78737936 1.96153572 153.76591492 4.89434814 C155.46168301 8.01956177 155.45444652 10.53861222 155.48466492 14.07794189 C155.53107117 15.88585205 155.53107117 15.88585205 155.57841492 17.73028564 C154.8146056 22.11716415 153.41155439 23.3628123 149.98466492 26.14044189 C146.93146515 26.77244091 146.93146515 26.77244091 143.45671082 26.78208923 C142.49391779 26.79484751 142.49391779 26.79484751 141.5116744 26.80786353 C139.36864313 26.83008527 137.22735634 26.81671349 135.08427429 26.80328369 C133.54485839 26.81169914 132.0054528 26.82222527 130.46606445 26.83470154 C126.29035533 26.8617532 122.11524359 26.85704844 117.93948555 26.84500098 C114.45275071 26.83786968 110.96612635 26.84636881 107.47940016 26.85490638 C99.25432862 26.87485884 91.02954774 26.86928864 82.80448914 26.847229 C74.3194347 26.82485873 65.83514081 26.84247147 57.35015821 26.88027829 C50.06335639 26.91150587 42.77679008 26.91943034 35.48992968 26.90832454 C31.13853945 26.90183533 26.78758824 26.9038497 22.43624878 26.92764854 C18.34503956 26.94888554 14.25490444 26.94094394 10.16376305 26.91055489 C8.66296326 26.9042223 7.16208024 26.90810107 5.66134071 26.922966 C-5.61274934 27.02558112 -5.61274934 27.02558112 -9.01881409 24.87609291 C-12.2285684 21.25566158 -12.66475808 17.77689705 -12.57783508 13.07794189 C-12.57912415 11.89071533 -12.58041321 10.70348877 -12.58174133 9.48028564 C-11.92353024 5.59910989 -10.74644362 3.92259919 -8.01533508 1.14044189 C-5.26960376 -0.23242377 -3.07453166 0.00816626 0 0 Z " fill="#6091B3" transform="translate(300.0153350830078,582.8595581054688)"/>
<path d="M0 0 C1.27447495 -0.00860046 2.54894989 -0.01720093 3.86204529 -0.02606201 C5.28251607 -0.03049737 6.70298729 -0.03479572 8.12345886 -0.03897095 C9.61316113 -0.04687091 11.10286149 -0.05513979 12.59255981 -0.06375122 C17.49240793 -0.08998241 22.39226465 -0.10527937 27.29216003 -0.11953735 C28.97789198 -0.12489648 30.66362387 -0.13027398 32.3493557 -0.13566971 C39.36051219 -0.15729954 46.37166637 -0.17603701 53.38284779 -0.1872921 C63.43637099 -0.20353638 73.489508 -0.23672429 83.5428856 -0.29369295 C90.6087631 -0.33236988 97.6745372 -0.35192207 104.7405178 -0.35721266 C108.96229685 -0.36086909 113.18366413 -0.37292067 117.40532875 -0.4053154 C121.37729589 -0.43535708 125.34860126 -0.44172222 129.32065773 -0.42993164 C130.77794866 -0.42971058 132.23526994 -0.43804293 133.69245529 -0.45558548 C135.68294352 -0.47824271 137.67373131 -0.46700835 139.66430664 -0.45410156 C141.33484714 -0.45906678 141.33484714 -0.45906678 143.03913593 -0.46413231 C146.99945081 0.35624945 148.48148709 2.08112207 151.02262878 5.15390015 C153.02840267 9.54750009 153.527846 13.35433661 153.02262878 18.15390015 C151.65006403 21.41050426 150.29567527 24.51737691 147.02262878 26.15390015 C144.99201846 26.25866791 142.95792361 26.29782649 140.92463684 26.30780029 C139.62347427 26.31640076 138.32231171 26.32500122 136.98171997 26.3338623 C135.53132669 26.33829765 134.08093299 26.342596 132.63053894 26.34677124 C131.10965792 26.35467103 129.58877877 26.36293991 128.06790161 26.37155151 C123.06584974 26.39778178 118.06378945 26.41307827 113.06169128 26.42733765 C111.34126657 26.43269656 109.62084192 26.43807406 107.90041733 26.44347 C100.74600004 26.46509852 93.59158503 26.48383678 86.43714333 26.49509239 C76.17492225 26.51134231 65.91307917 26.54454539 55.65100062 26.60149324 C48.439917 26.64014988 41.22893468 26.65971988 34.01775014 26.66501296 C29.70825729 26.66867179 25.39916748 26.68074915 21.08978653 26.71311569 C17.03656944 26.74312217 12.98400085 26.74953514 8.93069649 26.73773193 C7.44234745 26.73751058 5.95396897 26.74586648 4.46572304 26.76338577 C2.43547043 26.78598643 0.40492528 26.77482602 -1.62541199 26.76190186 C-2.76215048 26.765212 -3.89888897 26.76852215 -5.07007408 26.7719326 C-7.97737122 26.15390015 -7.97737122 26.15390015 -10.34116554 23.84050941 C-12.49897265 20.29744349 -12.51037765 17.77970406 -12.47737122 13.65390015 C-12.48768372 12.36483765 -12.49799622 11.07577515 -12.50862122 9.74765015 C-11.90633642 5.67337063 -10.85752713 4.03405606 -7.97737122 1.15390015 C-5.2426398 -0.21346556 -3.06251159 0.01533867 0 0 Z " fill="#5F91B3" transform="translate(279.9773712158203,509.8460998535156)"/>
<path d="M0 0 C1.89265594 -0.01062721 1.89265594 -0.01062721 3.82354736 -0.02146912 C5.21423376 -0.01917551 6.60491981 -0.01666584 7.99560547 -0.01396179 C9.46604674 -0.01831088 10.93648574 -0.02349468 12.40692139 -0.02944946 C16.39446275 -0.04282816 20.38190926 -0.0434195 24.36946869 -0.04088616 C27.69959589 -0.0398159 31.02970394 -0.04470113 34.35982704 -0.04949158 C42.21564799 -0.0605824 50.07142111 -0.06102627 57.92724609 -0.05497742 C66.03036974 -0.04893412 74.13331991 -0.06125859 82.23641396 -0.08254749 C89.19620686 -0.10015997 96.15594452 -0.10616549 103.1157589 -0.10290974 C107.27141412 -0.10109652 111.42694553 -0.10373715 115.58258057 -0.11762428 C119.48964701 -0.13019268 123.3964427 -0.12826806 127.30350494 -0.11521339 C128.73658591 -0.11284607 130.16968588 -0.11558794 131.60274506 -0.12383652 C133.56033378 -0.13429113 135.51799954 -0.12440781 137.47558594 -0.11352539 C138.57063446 -0.11369313 139.66568298 -0.11386087 140.79391479 -0.1140337 C144.14668852 0.31274526 146.03308358 1.26545501 148.73779297 3.26069641 C150.7264911 7.23809267 150.27811175 11.93814615 149.73779297 16.26069641 C148.25815201 19.63662814 146.35310804 22.64538134 143.73779297 25.26069641 C141.76007088 25.36616216 139.77853741 25.40037432 137.79801941 25.40786743 C136.50664566 25.41502274 135.21527191 25.42217804 133.88476562 25.42955017 C132.44018579 25.43239073 130.99560569 25.43510243 129.55102539 25.43769836 C128.04014427 25.44396005 126.5292647 25.45060658 125.01838684 25.45761108 C120.90261164 25.47504866 116.78684808 25.48558037 112.67104506 25.49381661 C110.10157489 25.49896102 107.53210837 25.505037 104.96264076 25.51132774 C96.92903826 25.53038766 88.89544499 25.54461698 80.86182421 25.55293971 C71.57789349 25.56271557 62.29420098 25.58904069 53.01035422 25.62944061 C45.84175128 25.65956876 38.67321675 25.67440545 31.50455171 25.67772073 C27.2197005 25.68007507 22.93510354 25.68908481 18.65032005 25.7141819 C14.61933988 25.73741008 10.58878228 25.7417173 6.55775261 25.73142052 C5.07747749 25.73092375 3.59718195 25.73728559 2.11697006 25.75097656 C0.09756268 25.76861086 -1.92202698 25.7592317 -3.94148254 25.7484436 C-5.63747699 25.75202613 -5.63747699 25.75202613 -7.36773396 25.75568104 C-10.90873045 25.15013427 -12.06600451 24.04266241 -14.26220703 21.26069641 C-15.91365077 16.87156519 -15.79994483 11.86881059 -15.26220703 7.26069641 C-11.7314953 0.98387556 -6.83670234 0.01281666 0 0 Z " fill="#6091B3" transform="translate(283.26220703125,437.7393035888672)"/>
<path d="M0 0 C7.20652187 4.30354133 11.88545394 9.59891075 15.2109375 17.3203125 C17.6376408 27.02712569 16.2109375 37.31475849 16.2109375 47.3203125 C-4.9090625 47.3203125 -26.0290625 47.3203125 -47.7890625 47.3203125 C-47.7890625 15.75306104 -47.7890625 15.75306104 -39.78515625 7.171875 C-28.9094365 -2.94027429 -13.87671176 -6.59259064 0 0 Z " fill="#253D51" transform="translate(631.7890625,409.6796875)"/>
<path d="M0 0 C4.06277667 3.17094765 7.40059629 6.49461997 10.734375 10.4140625 C14.41722586 14.61759228 18.27356281 18.6601352 22.11328125 22.72021484 C24.92029045 25.70381885 27.65149727 28.63040912 30 32 C28.65482741 35.0746802 27.27093546 36.87571902 24.6875 39 C21.95903442 41.29291236 19.30641093 43.6323749 16.72265625 46.0859375 C16.1500708 46.62734375 15.57748535 47.16875 14.98754883 47.7265625 C13.84300809 48.81240472 12.70337343 49.90344539 11.5690918 51 C8.76208439 53.64627983 6.78887488 55.27952272 3 56 C-11.48801143 40.57504294 -11.48801143 40.57504294 -16.40234375 34.84375 C-17.64524516 33.40939922 -18.91346874 31.9969755 -20.19140625 30.59375 C-20.93261719 29.7790625 -21.67382812 28.964375 -22.4375 28.125 C-23.11683594 27.38507812 -23.79617188 26.64515625 -24.49609375 25.8828125 C-26 24 -26 24 -26 22 C-26.66 21.67 -27.32 21.34 -28 21 C-27.11699219 20.45472656 -26.23398437 19.90945313 -25.32421875 19.34765625 C-16.26007647 13.67860406 -7.46890699 7.73652255 0 0 Z " fill="#5F90B2" transform="translate(730,600)"/>
<path d="M0 0 C4.30599849 2.57806972 7.23564057 5.85346085 10 10 C10.62693472 15.46016404 11.34373711 21.84831931 8.1875 26.625 C6 29 6 29 4.35546875 30.3828125 C2.8222322 31.90032476 2.8222322 31.90032476 2.8203125 33.953125 C2.92085937 34.71109375 3.02140625 35.4690625 3.125 36.25 C3.29708984 37.55324219 3.29708984 37.55324219 3.47265625 38.8828125 C4.49997854 44.95542869 5.73935273 50.97081739 7 57 C-1.91 57 -10.82 57 -20 57 C-19.3276791 50.94911191 -18.5739514 46.16159104 -17.0625 40.4375 C-15.88950992 35.30411398 -15.88950992 35.30411398 -17.10546875 30.36328125 C-18.68548113 28.24295809 -18.68548113 28.24295809 -20.484375 26.515625 C-23.05780845 23.94219155 -23.17815723 21.15391373 -23.25 17.6875 C-23.1584205 12.5423973 -22.0708552 9.04209332 -18.3125 5.3359375 C-12.45065403 0.18239792 -7.92458152 -1.33320685 0 0 Z " fill="#253D50" transform="translate(623,486)"/>
<path d="M0 0 C0.66 0.33 1.32 0.66 2 1 C1.67 1.66 1.34 2.32 1 3 C0.01 3 -0.98 3 -2 3 C-3.26932416 7.89637957 -3.1528989 12.72994367 -3.15821838 17.75056458 C-3.16315636 18.73897282 -3.16809434 19.72738106 -3.17318195 20.74574107 C-3.18855114 24.06071697 -3.19691605 27.3756735 -3.20532227 30.69067383 C-3.21490124 33.06576711 -3.22491133 35.4408587 -3.23532104 37.81594849 C-3.25956444 43.59783949 -3.27930766 49.37973328 -3.29707379 55.16164754 C-3.31799065 61.89010709 -3.34444556 68.61854142 -3.37124526 75.3469797 C-3.41889034 87.34580921 -3.46216287 99.34465034 -3.50268555 111.34350586 C-3.54205617 122.99846297 -3.58348615 134.65340977 -3.62768555 146.30834961 C-3.63040982 147.02690193 -3.63313409 147.74545424 -3.63594092 148.48578087 C-3.64962065 152.090589 -3.66334088 155.69539697 -3.67708123 159.30020487 C-3.79099756 189.20011511 -3.89774475 219.10004747 -4 249 C-4.33 249 -4.66 249 -5 249 C-6.06693506 243.77610792 -6.14827294 238.75354791 -6.14717102 233.44876099 C-6.15084771 232.49372771 -6.1545244 231.53869444 -6.1583125 230.55472076 C-6.16931553 227.35825236 -6.17318738 224.16181651 -6.17700195 220.96533203 C-6.18326896 218.67203672 -6.18991597 216.37874242 -6.19691467 214.08544922 C-6.2179224 206.55957746 -6.22831133 199.03370557 -6.23828125 191.5078125 C-6.24232949 188.91575993 -6.24644643 186.32370747 -6.25063133 183.73165512 C-6.26749238 172.95186408 -6.28212894 162.17207671 -6.28938007 151.39227486 C-6.2912898 148.59859338 -6.29321017 145.80491191 -6.29516602 143.01123047 C-6.29564976 142.3169181 -6.2961335 141.62260574 -6.2966319 140.90725361 C-6.30493593 129.65476617 -6.33028347 118.4023849 -6.36274669 107.14994384 C-6.39583181 95.58742142 -6.41349724 84.02496894 -6.41702431 72.46239746 C-6.41937601 65.97429225 -6.42835297 59.48635518 -6.45348549 52.99829483 C-6.47674153 46.89646075 -6.48100919 40.79490583 -6.47072411 34.69303894 C-6.4702281 32.45493009 -6.47656739 30.21680759 -6.49028015 27.97874069 C-6.5079683 24.92056103 -6.5009076 21.86338668 -6.48774719 18.8052063 C-6.49871644 17.92211985 -6.50968568 17.0390334 -6.52098733 16.12918675 C-6.46111717 10.35669317 -5.35599969 5.78925156 -2 1 C-1.34 0.67 -0.68 0.34 0 0 Z " fill="#6799B8" transform="translate(189,263)"/>
<path d="M0 0 C1.28845825 -0.00838898 2.5769165 -0.01677795 3.90441895 -0.02542114 C5.3250305 -0.0144553 6.74563902 -0.00308937 8.16624451 0.00863647 C9.6678653 0.00648972 11.16948447 0.0026107 12.6710968 -0.00286865 C16.74341755 -0.01255344 20.81529915 0.00272968 24.8875668 0.02303743 C29.14980133 0.04061762 33.41202249 0.03708318 37.67428589 0.03631592 C44.83069702 0.03818827 51.98693841 0.05554419 59.14329529 0.08285522 C67.41796182 0.11431734 75.69244255 0.12485096 83.96716458 0.12338412 C91.92763889 0.12216355 99.8880527 0.13237376 107.84850883 0.14896774 C111.23637807 0.15602976 114.62422589 0.15969371 118.01210213 0.16075516 C122.00039979 0.16276387 125.98854141 0.17497205 129.97678757 0.19508743 C131.44091651 0.20092991 132.90506342 0.20338968 134.36920357 0.20223236 C136.36659531 0.20125097 138.3639801 0.21379875 140.36132812 0.22705078 C141.47942147 0.23040247 142.59751482 0.23375416 143.74948978 0.23720741 C146.56685352 0.48996207 148.22626667 1.03336413 150.61717224 2.49447632 C147.67941254 3.96335617 145.05759704 3.62436238 141.78123474 3.62728882 C141.10547394 3.62824554 140.42971313 3.62920227 139.73347473 3.63018799 C138.30277921 3.63086881 136.87208059 3.62902133 135.44139099 3.62484741 C133.25772598 3.6195143 131.0742682 3.62478704 128.89060974 3.63119507 C127.49998429 3.63053394 126.10935896 3.62925207 124.71873474 3.62728882 C123.45368103 3.62616089 122.18862732 3.62503296 120.88523865 3.62387085 C117.61717224 3.49447632 117.61717224 3.49447632 115.89425659 2.99447632 C112.58167737 2.26710335 109.2901447 2.35566613 105.91575623 2.36508179 C104.75563019 2.36245331 104.75563019 2.36245331 103.57206726 2.35977173 C101.00244419 2.35535856 98.43288984 2.35829821 95.86326599 2.36166382 C94.04710884 2.36098853 92.23095177 2.36001663 90.41479492 2.35876465 C86.58388926 2.3572867 82.75300684 2.35943766 78.92210388 2.36410522 C74.12430069 2.36967874 69.32655433 2.36648414 64.52875328 2.3606987 C46.63242061 2.34200632 28.73239322 2.37575338 10.83963203 2.76648331 C9.31215127 2.79839336 7.78456344 2.82557007 6.25691032 2.84774399 C4.1720237 2.87975474 2.08848054 2.93059579 0.00413513 2.9871521 C-1.16362961 3.01254059 -2.33139435 3.03792908 -3.5345459 3.06408691 C-6.3840956 3.26411313 -6.3840956 3.26411313 -8.25003052 4.89849854 C-9.6525386 6.8744671 -9.87340941 8.27957251 -10.07032776 10.68197632 C-10.17345276 11.94010132 -10.27657776 13.19822632 -10.38282776 14.49447632 C-10.71282776 14.49447632 -11.04282776 14.49447632 -11.38282776 14.49447632 C-11.51859526 12.91353915 -11.61517521 11.3292068 -11.69532776 9.74447632 C-11.75333557 8.86275757 -11.81134338 7.98103882 -11.87110901 7.07260132 C-11.38282776 4.49447632 -11.38282776 4.49447632 -9.25123692 2.36424828 C-5.84530409 0.14409162 -4.03498203 -0.00393059 0 0 Z " fill="#6A97B6" transform="translate(300.38282775878906,582.5055236816406)"/>
<path d="M0 0 C1.63012575 0.04260303 3.25968135 0.11304915 4.88769531 0.20629883 C5.74768127 0.23556961 6.60766724 0.26484039 7.49371338 0.29499817 C10.23595664 0.39383865 12.97515423 0.52809826 15.71582031 0.66333008 C17.57640667 0.73663375 19.43708569 0.80762481 21.29785156 0.8762207 C25.85534987 1.04928993 30.410439 1.25413317 34.96582031 1.47583008 C34.96582031 1.80583008 34.96582031 2.13583008 34.96582031 2.47583008 C25.61870211 3.59222744 16.27286718 3.81916744 6.87011719 4.08129883 C5.66806641 4.11868164 4.46601563 4.15606445 3.22753906 4.19458008 C2.14432373 4.22487305 1.0611084 4.25516602 -0.05493164 4.28637695 C-2.80614541 4.46132917 -5.35064202 4.8618819 -8.03417969 5.47583008 C-5.84444862 1.70606795 -4.3227501 0.1353528 0 0 Z " fill="#0E171F" transform="translate(198.0341796875,256.524169921875)"/>
<path d="M0 0 C5.59753384 4.54799625 10.3143947 9.52331848 15 15 C14.01 17.475 14.01 17.475 13 20 C12.67 20 12.34 20 12 20 C11.7525 18.5459375 11.7525 18.5459375 11.5 17.0625 C10.00650811 11.62351463 5.84042133 7.93866467 2 4 C0.02 4.99 0.02 4.99 -2 6 C-1.34 4.02 -0.68 2.04 0 0 Z " fill="#0E1822" transform="translate(719,641)"/>
<path d="M0 0 C0.33 0 0.66 0 1 0 C1.46875 2.5078125 1.46875 2.5078125 1 6 C-1.18432258 8.95338615 -3.8154605 11.37910382 -6.5 13.875 C-7.21542969 14.56335938 -7.93085937 15.25171875 -8.66796875 15.9609375 C-10.43256007 17.65494516 -12.20957924 19.33338493 -14 21 C-14.66 20.67 -15.32 20.34 -16 20 C-15.18015625 19.2265625 -14.3603125 18.453125 -13.515625 17.65625 C-5.35551795 9.84718781 -5.35551795 9.84718781 0 0 Z " fill="#0C141D" transform="translate(878,755)"/>
<path d="M0 0 C5.34634876 1.58175999 9.1177231 5.11623219 13.3125 8.625 C14.42334961 9.54152344 14.42334961 9.54152344 15.55664062 10.4765625 C17.37580451 11.97883977 19.18998451 13.486724 21 15 C16.8886724 15 15.41912503 13.30430647 12.1875 10.8125 C11.65286133 10.40193359 11.11822266 9.99136719 10.56738281 9.56835938 C6.97205255 6.79463109 3.3941517 4.01702373 0 1 C0 0.67 0 0.34 0 0 Z " fill="#6796B7" transform="translate(378,763)"/>
<path d="M0 0 C0.66 0.33 1.32 0.66 2 1 C0.60919892 2.58775549 -0.78788404 4.17000939 -2.1875 5.75 C-2.96480469 6.63171875 -3.74210937 7.5134375 -4.54296875 8.421875 C-6.88455246 10.87886268 -9.30158265 12.94862766 -12 15 C-12.66 14.67 -13.32 14.34 -14 14 C-9.38 9.38 -4.76 4.76 0 0 Z " fill="#B6D8EF" transform="translate(512,363)"/>
<path d="M0 0 C2 2 2 2 3.25 4.25 C5.44972451 7.70670994 8.03964245 10.17121389 11 13 C10.67 13.66 10.34 14.32 10 15 C8.36884105 13.42301238 6.74528667 11.83815634 5.125 10.25 C4.22007812 9.36828125 3.31515625 8.4865625 2.3828125 7.578125 C0.35457004 5.38363316 -0.88880413 3.7332864 -2 1 C-1.34 0.67 -0.68 0.34 0 0 Z " fill="#6C9CBB" transform="translate(285,714)"/>
<path d="M0 0 C-0.8125 1.9375 -0.8125 1.9375 -2 4 C-2.99 4.33 -3.98 4.66 -5 5 C-5.33 5.99 -5.66 6.98 -6 8 C-9.0625 9.1875 -9.0625 9.1875 -12 10 C-4.57142857 0 -4.57142857 0 0 0 Z " fill="#101820" transform="translate(605,773)"/>
<path d="M0 0 C0.33 0.99 0.66 1.98 1 3 C-2.63 6.3 -6.26 9.6 -10 13 C-10.66 12.67 -11.32 12.34 -12 12 C-8.04 8.04 -4.08 4.08 0 0 Z " fill="#B6D9F0" transform="translate(718,569)"/>
<path d="M0 0 C0.66 0.33 1.32 0.66 2 1 C1.01 2.485 1.01 2.485 0 4 C0 4.99 0 5.98 0 7 C-0.33 7.33 -0.66 7.66 -1 8 C-1.23192865 9.51469448 -1.41215238 11.03754562 -1.5625 12.5625 C-1.64628906 13.38878906 -1.73007812 14.21507812 -1.81640625 15.06640625 C-1.87699219 15.70449219 -1.93757813 16.34257813 -2 17 C-2.33 17 -2.66 17 -3 17 C-3.08126087 14.91731407 -3.13930839 12.83371342 -3.1875 10.75 C-3.22230469 9.58984375 -3.25710938 8.4296875 -3.29296875 7.234375 C-2.97982934 3.77731593 -2.34290892 2.48434437 0 0 Z " fill="#6D9CBD" transform="translate(271,512)"/>
<path d="M0 0 C0.66 0.33 1.32 0.66 2 1 C-0.64 4.63 -3.28 8.26 -6 12 C-6 8.42424104 -4.91159393 6.94704065 -3 4 C-3.66 3.67 -4.32 3.34 -5 3 C-2.625 1.4375 -2.625 1.4375 0 0 Z " fill="#6E9CBC" transform="translate(709,655)"/>
<path d="M0 0 C-0.99 0.495 -0.99 0.495 -2 1 C-2 1.66 -2 2.32 -2 3 C-6.29 3 -10.58 3 -15 3 C-11.07677056 -0.92322944 -5.25785342 -0.10515707 0 0 Z " fill="#6897B5" transform="translate(285,252)"/>
<path d="M0 0 C0.66 0.33 1.32 0.66 2 1 C-1.09652196 4.27346607 -3.95019912 6.97509956 -8 9 C-8.99 9 -9.98 9 -11 9 C-9.73113036 7.87278564 -8.45982438 6.74831342 -7.1875 5.625 C-6.47980469 4.99851562 -5.77210938 4.37203125 -5.04296875 3.7265625 C-3 2 -3 2 0 0 Z " fill="#B3D5EB" transform="translate(526,352)"/>
<path d="M0 0 C4.77609498 1.64178265 8.79382904 4.26546702 13 7 C10 8 10 8 7 7 C4.66666667 4.66666667 2.33333333 2.33333333 0 0 Z " fill="#6C9BBB" transform="translate(501,185)"/>
<path d="M0 0 C3.22052097 0.95745218 4.71157349 1.5940664 6.6875 4.375 C7.79166667 6.58333333 8.89583333 8.79166667 10 11 C5.86062408 7.69984002 2.41337795 4.82675589 0 0 Z " fill="#4B728F" transform="translate(736,678)"/>
<path d="M0 0 C2.4375 1.125 2.4375 1.125 5 3 C5.75 5.9375 5.75 5.9375 6 9 C6.31674575 10.33737094 6.64270064 11.67288808 7 13 C3.70759125 10.20145256 1.96437054 6.79326725 0 3 C0 2.01 0 1.02 0 0 Z " fill="#6C9DBC" transform="translate(217,620)"/>
<path d="M0 0 C0 3.58912412 -0.66436554 4.10857029 -3 6.6875 C-3.556875 7.31011719 -4.11375 7.93273437 -4.6875 8.57421875 C-5.120625 9.04472656 -5.55375 9.51523437 -6 10 C-6.66 9.67 -7.32 9.34 -8 9 C-6.85459775 7.68712379 -5.70866567 6.37470979 -4.5625 5.0625 C-3.92441406 4.33160156 -3.28632812 3.60070312 -2.62890625 2.84765625 C-1.77458541 1.87860647 -0.91348825 0.91348825 0 0 Z " fill="#1B3448" transform="translate(744,586)"/>
<path d="M0 0 C0.66 0.33 1.32 0.66 2 1 C-1.96 4.465 -1.96 4.465 -6 8 C-6.66 7.67 -7.32 7.34 -8 7 C-5.36 4.69 -2.72 2.38 0 0 Z " fill="#6597B8" transform="translate(605,730)"/>
<path d="M0 0 C1.17539996 0.92652701 2.34010577 1.86663387 3.5 2.8125 C4.1496875 3.33457031 4.799375 3.85664062 5.46875 4.39453125 C7 6 7 6 7 9 C6.21625 8.34 5.4325 7.68 4.625 7 C2.28487188 4.79798559 2.28487188 4.79798559 0 5 C0 3.35 0 1.7 0 0 Z " fill="#4A6F8C" transform="translate(850,713)"/>
<path d="M0 0 C0.99 0 1.98 0 3 0 C6 6.625 6 6.625 6 10 C4.99421411 8.71283353 3.99553202 7.42011342 3 6.125 C2.443125 5.40570312 1.88625 4.68640625 1.3125 3.9453125 C0 2 0 2 0 0 Z " fill="#6899B8" transform="translate(243,664)"/>
<path d="M0 0 C-4.455 2.97 -4.455 2.97 -9 6 C-9.66 5.67 -10.32 5.34 -11 5 C-4.36842105 -2.18421053 -4.36842105 -2.18421053 0 0 Z " fill="#0C131C" transform="translate(455,177)"/>
<path d="M0 0 C0.99 0 1.98 0 3 0 C4.98007644 2.85131007 6.45605064 5.8988485 8 9 C6.84775972 8.07038578 5.70340824 7.1309875 4.5625 6.1875 C3.60537109 5.40439453 3.60537109 5.40439453 2.62890625 4.60546875 C1 3 1 3 0 0 Z " fill="#4B708D" transform="translate(747,690)"/>
<path d="M0 0 C3.35595828 0.59927826 5.37801226 1.84622436 8 4 C6.02 4.99 6.02 4.99 4 6 C3.34 5.34 2.68 4.68 2 4 C2 3.34 2 2.68 2 2 C1.34 1.34 0.68 0.68 0 0 Z " fill="#11171E" transform="translate(446,848)"/>
<path d="M0 0 C0.99 0.33 1.98 0.66 3 1 C0.69 3.31 -1.62 5.62 -4 8 C-4 4.09161134 -2.49432124 2.88405893 0 0 Z " fill="#6A9BBB" transform="translate(660,671)"/>
<path d="M0 0 C1.32 0 2.64 0 4 0 C3.67 2.31 3.34 4.62 3 7 C0 3.375 0 3.375 0 0 Z " fill="#6A9BBB" transform="translate(206,596)"/>
<path d="M0 0 C1.485 0.99 1.485 0.99 3 2 C3.1875 5.125 3.1875 5.125 3 8 C2.01 8.495 2.01 8.495 1 9 C0.67 6.03 0.34 3.06 0 0 Z " fill="#2C4558" transform="translate(746,468)"/>
</svg>
